<svg xmlns="http://www.w3.org/2000/svg" xmlns:xlink="http://www.w3.org/1999/xlink" width="74.724" height="74.724" viewBox="0 0 74.724 74.724">
  <defs>
    <clipPath id="clip-path">
      <circle id="Elipse_1952" data-name="Elipse 1952" cx="35.362" cy="35.362" r="35.362" fill="#fff"/>
    </clipPath>
  </defs>
  <g id="Grupo_17701" data-name="Grupo 17701" transform="translate(2 2)">
    <g id="Trazado_59249" data-name="Trazado 59249" transform="translate(0 0)" fill="#fff">
      <path d="M 35.36224365234375 71.7244873046875 C 30.45381355285645 71.7244873046875 25.69167327880859 70.76293182373047 21.2081127166748 68.86654663085938 C 16.87800407409668 67.03506469726562 12.98937320709229 64.41335296630859 9.650253295898438 61.07423400878906 C 6.311133861541748 57.73511505126953 3.689423561096191 53.84648513793945 1.857943654060364 49.51637268066406 C -0.03844634816050529 45.03281402587891 -0.9999963641166687 40.27067184448242 -0.9999963641166687 35.36224365234375 C -0.9999963641166687 30.45381355285645 -0.03844634816050529 25.69167327880859 1.857943654060364 21.2081127166748 C 3.689423561096191 16.87800407409668 6.311133861541748 12.98937320709229 9.650253295898438 9.650253295898438 C 12.98937320709229 6.311133861541748 16.87800407409668 3.689423561096191 21.2081127166748 1.857943654060364 C 25.69167327880859 -0.03844634816050529 30.45381355285645 -0.9999963641166687 35.36224365234375 -0.9999963641166687 C 40.27067184448242 -0.9999963641166687 45.03281402587891 -0.03844634816050529 49.51637268066406 1.857943654060364 C 53.84648513793945 3.689423561096191 57.73511505126953 6.311133861541748 61.07423400878906 9.650253295898438 C 64.41335296630859 12.98937320709229 67.03506469726562 16.87800407409668 68.86654663085938 21.2081127166748 C 70.76293182373047 25.69167327880859 71.7244873046875 30.45381355285645 71.7244873046875 35.36224365234375 C 71.7244873046875 40.27067184448242 70.76293182373047 45.03281402587891 68.86654663085938 49.51637268066406 C 67.03506469726562 53.84648513793945 64.41335296630859 57.73511505126953 61.07423400878906 61.07423400878906 C 57.73511505126953 64.41335296630859 53.84648513793945 67.03506469726562 49.51637268066406 68.86654663085938 C 45.03281402587891 70.76293182373047 40.27067184448242 71.7244873046875 35.36224365234375 71.7244873046875 Z" stroke="none"/>
      <path d="M 35.36224365234375 0 C 15.83221054077148 0 0 15.83221054077148 0 35.36224365234375 C 0 54.89227676391602 15.83221054077148 70.7244873046875 35.36224365234375 70.7244873046875 C 54.89227676391602 70.7244873046875 70.7244873046875 54.89227676391602 70.7244873046875 35.36224365234375 C 70.7244873046875 15.83221054077148 54.89227676391602 0 35.36224365234375 0 M 35.36224365234375 -2 C 40.40523529052734 -2 45.29844284057617 -1.011878967285156 49.90593338012695 0.9369354248046875 C 54.35524368286133 2.818832397460938 58.35070037841797 5.51251220703125 61.78134155273438 8.943141937255859 C 65.21197509765625 12.37378692626953 67.90565490722656 16.36924362182617 69.78755187988281 20.81855392456055 C 71.73636627197266 25.42604446411133 72.7244873046875 30.31925582885742 72.7244873046875 35.36224365234375 C 72.7244873046875 40.40523529052734 71.73636627197266 45.29844284057617 69.78755187988281 49.90593338012695 C 67.90565490722656 54.35524368286133 65.21197509765625 58.35070037841797 61.78134155273438 61.78134155273438 C 58.35070037841797 65.21197509765625 54.35524368286133 67.90565490722656 49.90593338012695 69.78755187988281 C 45.29844284057617 71.73636627197266 40.40523529052734 72.7244873046875 35.36224365234375 72.7244873046875 C 30.31925582885742 72.7244873046875 25.42604446411133 71.73636627197266 20.81855392456055 69.78755187988281 C 16.36924362182617 67.90565490722656 12.37378692626953 65.21197509765625 8.943141937255859 61.78134155273438 C 5.51251220703125 58.35070037841797 2.818832397460938 54.35524368286133 0.9369354248046875 49.90593338012695 C -1.011878967285156 45.29844284057617 -2 40.40523529052734 -2 35.36224365234375 C -2 30.31925582885742 -1.011878967285156 25.42604446411133 0.9369354248046875 20.81855392456055 C 2.818832397460938 16.36924362182617 5.51251220703125 12.37378692626953 8.943141937255859 8.943141937255859 C 12.37378692626953 5.51251220703125 16.36924362182617 2.818832397460938 20.81855392456055 0.9369354248046875 C 25.42604446411133 -1.011878967285156 30.31925582885742 -2 35.36224365234375 -2 Z" stroke="none" fill="#081551"/>
    </g>
    <g id="Grupo_17675" data-name="Grupo 17675" transform="translate(0 0)" clip-path="url(#clip-path)">
      <g id="Grupo_17673" data-name="Grupo 17673" transform="translate(8.274 12.074)">
        <path id="Trazado_59214" data-name="Trazado 59214" d="M2421.129-754.234a7.193,7.193,0,0,1,1.054-5.77c.845-1.217,2.115-2.269,2.287-3.741.162-1.39-.718-2.653-1.26-3.944a8.772,8.772,0,0,1,2.631-10.028,5.035,5.035,0,0,0,1.486-1.4,3.457,3.457,0,0,0,.272-1.9,40.473,40.473,0,0,1-.461-5.576c.134-1.863,1.065-3.847,2.824-4.476,1.489-.533,3.312-.014,4.6-.933a7.123,7.123,0,0,0,1.392-1.66,7.812,7.812,0,0,1,8.656-2.586c1.831.661,3.089,1.343,5.044,1.353,1.483.008,3.047-.409,4.542-.281a14.72,14.72,0,0,1,4.09.882,11.6,11.6,0,0,1,6.171,5.835,14.629,14.629,0,0,0,2.1,3.756,34.1,34.1,0,0,0,3.348,2.451,6.983,6.983,0,0,1,2.48,5.608c-.075,1.633-.73,3.256-.428,4.862.412,2.187,2.424,3.638,3.748,5.427a9.662,9.662,0,0,1,1.611,7.868c-.52,2.186-1.8,4.135-2.311,6.323-.718,3.064.126,6.247.381,9.384s-.336,6.751-2.963,8.486c-1.333.88-2.982,1.124-4.419,1.822-2.617,1.271-4.284,3.9-6.622,5.634-4.292,3.182-10.152,2.937-15.46,2.33-3.066-.35-6.205-.8-8.9-2.3a24.259,24.259,0,0,1-6.065-5.423c-1.707-1.927-3.294-3.975-5.059-5.8-1.7-1.751-3.542-3.759-3.6-6.349-.038-1.568.624-3.1.523-4.663C2422.7-750.864,2421.573-752.462,2421.129-754.234Z" transform="translate(-2420.923 796.667)" fill="#081551"/>
        <path id="Trazado_59215" data-name="Trazado 59215" d="M2509.873-664.52c-2.026,1.793-5.178,4.656-8.8,4.251a12.062,12.062,0,0,1-2.75-.614l.565-6.925,10.216,1.13Z" transform="translate(-2478.652 700.556)" fill="#f4a595"/>
        <path id="Trazado_59216" data-name="Trazado 59216" d="M2491.989-748.931q0,.445-.05.94a18.589,18.589,0,0,1-.775,3.893,19.652,19.652,0,0,1-4.058,7.638,10.4,10.4,0,0,1-9.2,3.316c-8.1-.891-10.162-8.165-10.574-13.56-.016-.181-.016-.346-.033-.528a30.379,30.379,0,0,1,1.484-10.211c2.326-4.932,10.871-4.867,10.871-4.867s1.353,4.008,11.976,9.964A9.8,9.8,0,0,1,2491.989-748.931Z" transform="translate(-2455.49 771.041)" fill="#f9cabe"/>
        <path id="Trazado_59217" data-name="Trazado 59217" d="M2518.238-695.458a.01.01,0,0,1,0,.02A.01.01,0,0,1,2518.238-695.458Z" transform="translate(-2493.498 721.179)" fill="#594e86"/>
        <path id="Trazado_59218" data-name="Trazado 59218" d="M2493.943-686c1.01,1.869,4.352,1.777,5.8.487a.205.205,0,0,1,.317.234c-.5,1.269-2.23,1.416-3.4,1.425a3.63,3.63,0,0,1-3.444-1.82C2492.973-686.13,2493.7-686.448,2493.943-686Z" transform="translate(-2474.806 714.285)" fill="#f4a595"/>
        <path id="Trazado_59219" data-name="Trazado 59219" d="M2529.648-712.985a.841.841,0,0,1,.217.033c.778.228.7,1.3.391,1.863a.773.773,0,0,1-.75.456.856.856,0,0,1-.66-.707C2528.69-711.933,2528.839-713.064,2529.648-712.985Z" transform="translate(-2501.377 734.255)" fill="#1b2138"/>
        <path id="Trazado_59220" data-name="Trazado 59220" d="M2489.143-717.4a.85.85,0,0,0-.219-.015c-.809.054-.967,1.113-.786,1.734a.774.774,0,0,0,.633.608.855.855,0,0,0,.8-.547C2489.849-716.161,2489.95-717.3,2489.143-717.4Z" transform="translate(-2471.006 737.555)" fill="#1b2138"/>
        <path id="Trazado_59221" data-name="Trazado 59221" d="M2503.411-711.666c.277-.656.261-1.519.683-2.07a.053.053,0,0,1,.082-.01c.552.537.207,1.532-.025,2.164-.163.444-.365.873-.567,1.3-.068.142-.393.587-.357.75.1.448.92.436,1.229.4.515-.057.519.762,0,.811-.735.069-2.232-.3-2.055-1.259A11.867,11.867,0,0,1,2503.411-711.666Z" transform="translate(-2481.683 734.832)" fill="#f4a595"/>
        <path id="Trazado_59222" data-name="Trazado 59222" d="M2524.164-727.868a3.711,3.711,0,0,1,2.649.042c.761.222,1.932.593,2.268,1.369a.345.345,0,0,1-.293.511c-.765.034-1.548-.542-2.285-.752a13.883,13.883,0,0,1-2.338-.584A.342.342,0,0,1,2524.164-727.868Z" transform="translate(-2497.802 745.525)" fill="#081551"/>
        <path id="Trazado_59223" data-name="Trazado 59223" d="M2482.425-733.137c1.028-1.079,3.47-.612,4.573.129.35.236.266.933-.238.88a18.5,18.5,0,0,0-2.363-.333,3.468,3.468,0,0,1-1.9-.148A.34.34,0,0,1,2482.425-733.137Z" transform="translate(-2466.723 749.756)" fill="#081551"/>
        <path id="Trazado_59224" data-name="Trazado 59224" d="M2557.027-709.432s2.5-3.021,3.683-1.551-.66,8.305-5.194,7.64Z" transform="translate(-2521.311 733.06)" fill="#f9cabe"/>
        <path id="Trazado_59225" data-name="Trazado 59225" d="M2560.076-702.942c.2-.075.385.233.214.367a9.455,9.455,0,0,0-1.257,1.106,3.22,3.22,0,0,1,1.142.2c.265.1.247.532-.07.52a8.651,8.651,0,0,1-1.558-.04c-.176.3-.329.618-.505.934a.3.3,0,0,1-.545-.23A4.418,4.418,0,0,1,2560.076-702.942Z" transform="translate(-2522.781 726.77)" fill="#f4a595"/>
        <path id="Trazado_59226" data-name="Trazado 59226" d="M2589.848-730.943a3.712,3.712,0,0,1,2.344,3.233,27.765,27.765,0,0,1,.039,3.535c.073,2.1,1.18,3.215,2.63,4.557,3.14,2.907,3.681,7.726,2.063,11.592a.273.273,0,0,1-.525-.145,16.647,16.647,0,0,0,.408-6.55c-.492-2.428-1.933-3.727-3.586-5.4a5.365,5.365,0,0,1-1.656-3.74c-.106-2.3.826-5.516-1.846-6.77C2589.546-730.716,2589.667-731.007,2589.848-730.943Z" transform="translate(-2546.759 747.653)" fill="#1b2a6e"/>
        <path id="Trazado_59227" data-name="Trazado 59227" d="M2586.192-687.22a13.337,13.337,0,0,1,1.389,10.416c-.1.316-.665.288-.619-.084.441-3.579.419-6.777-1.092-10.143C2585.773-687.246,2586.073-687.435,2586.192-687.22Z" transform="translate(-2543.936 715.105)" fill="#1b2a6e"/>
        <path id="Trazado_59228" data-name="Trazado 59228" d="M2442.334-754.694c.83-1.77,2.756-2.781,2.994-4.826.323-2.768-1.933-5.881-.144-8.508a4.3,4.3,0,0,1,2.4-1.54,22.7,22.7,0,0,1,5.44-1.384.046.046,0,0,1,.023.086,22.243,22.243,0,0,1-4.654,1.8c-2.52.842-3.372,2.4-2.886,5,.47,2.51,1.4,4.8-.286,7.055-.941,1.252-2.081,2.114-2.459,3.747-.463,2,.463,3.561,1.239,5.3a8.392,8.392,0,0,1-.04,7.456.261.261,0,0,1-.475-.2,9.78,9.78,0,0,0-.249-6.809,14.627,14.627,0,0,1-1.415-3.566A6.294,6.294,0,0,1,2442.334-754.694Z" transform="translate(-2436.456 777.486)" fill="#1b2a6e"/>
      </g>
      <g id="freepik--character-1--inject-4" transform="translate(-6.064 33.421)">
        <path id="Trazado_59229" data-name="Trazado 59229" d="M2508.853-661.8c0,1.94.2,9.172-1.391,10.549l-1.02,1.63c-2.329,3.716-7.108,3.412-8.96-.685a3.248,3.248,0,0,1-.257-.74q-.07-.316-.11-.64a20.873,20.873,0,0,0-.26-2.34c.138-2.342.365-4.123.365-4.1" transform="translate(-2463.219 674.726)" fill="#f9cabe"/>
        <path id="Trazado_59230" data-name="Trazado 59230" d="M2497.2-648.589c.728,2.655,6.118,1.24,8.853-.578,0,0-2.6,2.444-9.2,4.564Z" transform="translate(-2463.219 665.305)" fill="#f4a595"/>
        <path id="Trazado_59231" data-name="Trazado 59231" d="M2549.132-696.869" transform="translate(-2502.211 700.885)" fill="#005f7f"/>
        <path id="Trazado_59232" data-name="Trazado 59232" d="M2576.286-712.67" transform="translate(-2522.464 712.67)" fill="#006e8c"/>
        <path id="Trazado_59233" data-name="Trazado 59233" d="M2551.335-593.449a2.986,2.986,0,0,0,.327-.474c.2-.31.485-.762.851-1.311a47.886,47.886,0,0,1,3.048-4.138,23.4,23.4,0,0,1,3.642-3.6,19.832,19.832,0,0,1,1.788-1.156,2.9,2.9,0,0,0-.535.216,4.91,4.91,0,0,0-.593.324,7.829,7.829,0,0,0-.748.49,21.021,21.021,0,0,0-3.719,3.6,38.405,38.405,0,0,0-3.024,4.193c-.349.554-.615,1.025-.792,1.35A3.044,3.044,0,0,0,2551.335-593.449Z" transform="translate(-2503.854 631.714)" fill="#263238"/>
        <path id="Trazado_59234" data-name="Trazado 59234" d="M2449.421-590.618l7.868-35.037-8.037-4.293c-.166-.241-5.8-1.986-5.8-1.986a6.008,6.008,0,0,1-2.588,4.311c-4.867,2.938-8.747.354-9.163-4.15l-1,.184-4.456,1.253-8.592,1.483s-7.009,18.264-6.08,25.409-.366,19.508-.366,19.508l-1.78,13.3,7.314.15h1.2l16.313-.091,14.237-.058C2446.8-575.465,2449.421-590.618,2449.421-590.618Z" transform="translate(-2398.008 652.451)" fill="#7b55bf"/>
        <path id="Trazado_59235" data-name="Trazado 59235" d="M2372.138-574.48a7.544,7.544,0,0,1-6.9-3.777,5.377,5.377,0,0,1-.729-2.613c0-3.805,2.37-9.262,3.157-11.227,1.134-2.832,11.939-22.449,13.239-22.171s2.007.38,2.007.38l-6.153,27.908,19.569,3.209-2.148,7.483Z" transform="translate(-2364.505 639.279)" fill="#f9cabe"/>
        <path id="Trazado_59236" data-name="Trazado 59236" d="M2392.543-608.179l9.944,5.266,3.287-16.942s-4.212.38-5.6,2.148S2392.543-608.179,2392.543-608.179Z" transform="translate(-2385.417 643.443)" fill="#7b55bf"/>
        <path id="Trazado_59237" data-name="Trazado 59237" d="M2399.774-536.318l-2.68-5.82-1.17-4.3-3.562-2.771s-1.18.138-.815,1.056a11.613,11.613,0,0,0,2.156,2.566l1.053,2.941-1.713-2.988-2.494-1.236-2.475.183s-.457,1.109.69,1.145H2390l1.879,1.513,1.175,2.841-1.771-2.749-2.614-.928-1.663.424s-.457.734.366.832a12.156,12.156,0,0,0,1.386.091l1.51.879,1.33,2.788-2.339-1.912-3.023-.36s-.5.729.277,1a25.234,25.234,0,0,1,2.339,1.109l1.682,2.325Z" transform="translate(-2380.596 590.752)" fill="#f9cabe"/>
        <path id="Trazado_59238" data-name="Trazado 59238" d="M2399.618-536.448l-9.251-1.341h-.019v-.017l-1.69-2.323.019.014c-.529-.277-1.081-.554-1.663-.815-.147-.064-.294-.13-.444-.189a2.355,2.355,0,0,1-.457-.205.555.555,0,0,1-.244-.468.99.99,0,0,1,.169-.5l.017-.028h.039l3.024.358h.019l2.339,1.923-.1.078-1.333-2.772.028.028-1.513-.879h.036a11.942,11.942,0,0,1-1.239-.078.8.8,0,0,1-.629-.255.485.485,0,0,1-.061-.363,1.111,1.111,0,0,1,.127-.327v-.025h.028l1.663-.427h.041l2.625.948h.022v.02l1.8,2.752-.125.066-.632-1.521c-.18-.443-.363-.881-.554-1.319l.022.028L2389.8-545.6l.044.017h-.732a4.688,4.688,0,0,1-.732-.025.711.711,0,0,1-.588-.471,1.193,1.193,0,0,1,.058-.748v-.039h.047l2.475-.183h.036l2.494,1.239h.017v.02l1.712,2.988-.122.055-1.017-2.938.017.028a15.918,15.918,0,0,1-1.735-1.879,4.524,4.524,0,0,1-.341-.521,1.109,1.109,0,0,1-.158-.612.685.685,0,0,1,.355-.515,1.544,1.544,0,0,1,.576-.2h.042l3.556,2.771h.014v.017l1.161,4.3h0l2.638,5.845-2.716-5.8h0l-1.164-4.307.02.028-3.564-2.755h.041a1.477,1.477,0,0,0-.529.18.569.569,0,0,0-.3.43,1.845,1.845,0,0,0,.479,1.05,15.846,15.846,0,0,0,1.724,1.857h0v.014l1.056,2.941-.119.055-1.715-2.985.031.025-2.494-1.236h.036l-2.475.183.061-.041a1.049,1.049,0,0,0-.053.648.555.555,0,0,0,.477.374,5.009,5.009,0,0,0,.71.022h.751l.019.017,1.879,1.513h.017v.016l.554,1.319c.213.521.429,1.039.629,1.521l-.128.067-1.771-2.749.036.028-2.611-.929h.033l-1.663.424.044-.031a.554.554,0,0,0-.069.554.367.367,0,0,0,.224.144,1.636,1.636,0,0,0,.3.05c.418.042.831.069,1.225.075h.033l1.51.879h.019v.019l1.328,2.788.125.263-.225-.186-2.336-1.94h.033l-3.023-.363.053-.025a.9.9,0,0,0-.15.438.432.432,0,0,0,.194.377,2.618,2.618,0,0,0,.435.191c.153.061.3.128.446.191q.873.415,1.663.831h0l1.68,2.328-.031-.02Z" transform="translate(-2380.439 590.882)" fill="#f4a595"/>
        <g id="Grupo_17674" data-name="Grupo 17674" transform="translate(17.283 64.045)" opacity="0.3">
          <path id="Trazado_59239" data-name="Trazado 59239" d="M2466.8-460.66s-2.272,4.761-5.224,6.155a13.165,13.165,0,0,1-7.743,1.336,71.074,71.074,0,0,1-8.667-1.663l-12.657-5.432,26.606,4.193Z" transform="translate(-2432.511 460.66)"/>
        </g>
        <path id="Trazado_59240" data-name="Trazado 59240" d="M2474.5-600.676s4.761-1.688,4.853,8.985-12.424,28.585-14.569,30.347-4.573,2.949-11.005,2c-8.068-1.194-19.652-5.418-19.652-5.418l7.087-6.59,14.384-.649,11.693-24.037S2470.508-601.142,2474.5-600.676Z" transform="translate(-2416.432 629.211)" fill="#f9cabe"/>
        <path id="Trazado_59241" data-name="Trazado 59241" d="M2481.257-496.006a15.274,15.274,0,0,0,7.594,2.128c4.027-.116,7.591,1.186,8.109.832s.576-.995,0-1.283a18.879,18.879,0,0,0-3.012-.632l-2.106-.865s7.192.618,7.766.341,1.15-.69.92-1.322a.9.9,0,0,0-.806-.635s1.555.058,1.5-.574a1.985,1.985,0,0,0-.862-1.325c-.23-.114-3.248-1.341-3.248-1.341l-3.88-.771,3.725-.15,3.254.909s1.3.147,1.011-.948-4.26-2.3-4.26-2.3l-5.061-.349s3.91-.571,4.312-1.779a1.877,1.877,0,0,0-.277-1.9,31.29,31.29,0,0,1-4.085,1.325,25.843,25.843,0,0,0-5.061,1.61,34.063,34.063,0,0,0-3.376,1.552" transform="translate(-2451.586 559.99)" fill="#f9cabe"/>
        <path id="Trazado_59242" data-name="Trazado 59242" d="M2483.43-503.621l.205-.116c.136-.075.341-.183.612-.319.554-.277,1.353-.651,2.417-1.092a35.005,35.005,0,0,1,3.96-1.4c.394-.105.809-.2,1.242-.277a10.977,10.977,0,0,0,1.3-.341c.884-.277,1.807-.61,2.772-.984h.033l.022.025a1.881,1.881,0,0,1,.407,1.524l-.042.205-.055.2a1.022,1.022,0,0,1-.224.371,2.549,2.549,0,0,1-.7.5,8.6,8.6,0,0,1-1.663.6,17.232,17.232,0,0,1-1.785.377v-.122l5.063.344H2497a18.762,18.762,0,0,1,3.035,1.219,5.831,5.831,0,0,1,.715.449,2.458,2.458,0,0,1,.324.291.985.985,0,0,1,.233.385,1.065,1.065,0,0,1,.028.452.6.6,0,0,1-.238.4,1.356,1.356,0,0,1-.873.186h0l-3.257-.906h.022l-3.725.15v-.141l2.771.554,1.109.219h.014l3.234,1.339a1.863,1.863,0,0,1,.629.626,1.508,1.508,0,0,1,.277.831.483.483,0,0,1-.291.372,1.482,1.482,0,0,1-.418.136,4.042,4.042,0,0,1-.854.067v-.142a.945.945,0,0,1,.67.33,1.028,1.028,0,0,1,.255.69.948.948,0,0,1-.346.643,2.686,2.686,0,0,1-.59.388.551.551,0,0,1-.177.069,1.018,1.018,0,0,1-.177.025c-.116.014-.233.017-.346.019h-.685c-.455,0-.9-.028-1.347-.05-1.773-.091-3.481-.233-5.144-.368l.03-.125,2.1.865h0c.776.116,1.53.241,2.265.408.183.044.365.089.554.149a1.086,1.086,0,0,1,.5.291.669.669,0,0,1,.161.555.908.908,0,0,1-.277.5,1.075,1.075,0,0,1-.105.091.488.488,0,0,1-.13.078.9.9,0,0,1-.277.033,3.622,3.622,0,0,1-.529-.047c-.347-.047-.682-.114-1.014-.175-.662-.125-1.308-.247-1.94-.346a25.076,25.076,0,0,0-3.531-.335h-1.583a7.144,7.144,0,0,1-.74-.058l-.7-.1a15.95,15.95,0,0,1-4.03-1.289c-.444-.211-.773-.388-.992-.513s-.327-.2-.327-.2a.917.917,0,0,1,.086.047l.25.136c.224.119.554.294,1,.5a16.215,16.215,0,0,0,4.024,1.253l.693.091c.238.025.485.036.734.055s.507,0,.771,0h.809a24.735,24.735,0,0,1,3.548.324c.629.1,1.275.216,1.94.341.333.061.668.125,1.009.172a4.07,4.07,0,0,0,.516.044.858.858,0,0,0,.244-.03.658.658,0,0,0,.191-.141.808.808,0,0,0,.238-.432.555.555,0,0,0-.136-.457.972.972,0,0,0-.446-.258c-.172-.058-.352-.1-.532-.144-.726-.163-1.483-.277-2.253-.4h-.017l-2.106-.876-.388-.158.418.033c1.644.139,3.359.277,5.136.363.444.022.892.041,1.344.05h.676a2.265,2.265,0,0,0,.338-.017,1.487,1.487,0,0,0,.161-.025.419.419,0,0,0,.141-.055,2.712,2.712,0,0,0,.554-.368.816.816,0,0,0,.3-.554.905.905,0,0,0-.225-.593.808.808,0,0,0-.554-.277v-.141a4.091,4.091,0,0,0,.832-.064,1.322,1.322,0,0,0,.379-.122.352.352,0,0,0,.216-.26,1.385,1.385,0,0,0-.277-.748,1.782,1.782,0,0,0-.574-.576l-3.215-1.339h0l-1.108-.219-2.771-.554-.6-.119.607-.025,3.725-.147H2497l3.257.928h0a1.2,1.2,0,0,0,.776-.158.626.626,0,0,0,.158-.7,1.342,1.342,0,0,0-.5-.6,5.3,5.3,0,0,0-.7-.438,18.51,18.51,0,0,0-3.01-1.214h.017l-5.063-.352-.554-.039.554-.086a17.929,17.929,0,0,0,1.771-.369,8.726,8.726,0,0,0,1.629-.587,2.5,2.5,0,0,0,.674-.468.915.915,0,0,0,.2-.333l.058-.191.036-.2a1.768,1.768,0,0,0-.371-1.433h.058c-.965.371-1.887.7-2.771.978a11.93,11.93,0,0,1-1.314.338c-.43.075-.832.169-1.236.277a34.4,34.4,0,0,0-3.958,1.386c-1.067.43-1.879.8-2.425,1.064l-.621.3Z" transform="translate(-2451.611 560.129)" fill="#f4a595"/>
        <path id="Trazado_59243" data-name="Trazado 59243" d="M2523.635-471.211a8.788,8.788,0,0,0,1.208.094c.743.044,1.771.13,2.893.3s2.131.391,2.855.568a8.4,8.4,0,0,0,1.18.277,5.569,5.569,0,0,0-1.139-.416,21.2,21.2,0,0,0-2.863-.637,21.62,21.62,0,0,0-2.921-.241A5.484,5.484,0,0,0,2523.635-471.211Z" transform="translate(-2483.194 532.624)" fill="#f4a595"/>
        <path id="Trazado_59244" data-name="Trazado 59244" d="M2423.036-591.4c-.15.7-.277,1.275-.366,1.718a3.934,3.934,0,0,0-.105.635,3.481,3.481,0,0,0,.188-.618c.111-.438.255-1.011.43-1.7.357-1.438.832-3.428,1.344-5.631.832-3.6,1.522-6.671,1.7-7.624v-.075l-.061.041a1.728,1.728,0,0,0-.3.227,1.782,1.782,0,0,0,.333-.175l-.047-.033c-.277.931-1.006,3.977-1.849,7.591" transform="translate(-2407.81 632.137)" fill="#263238"/>
        <path id="Trazado_59245" data-name="Trazado 59245" d="M2541.607-593.749l16.074,7.164s6.239-19.253-2.951-22.354l-4.609,1.078Z" transform="translate(-2496.599 635.301)" fill="#7b55bf"/>
        <line id="Línea_1446" data-name="Línea 1446" y1="0.815" x2="22.039" transform="translate(7.633 63.984)" fill="none"/>
        <path id="Trazado_59246" data-name="Trazado 59246" d="M2416.577-460.914c0,.042-4.93.255-11.016.48s-11.022.374-11.022.335,4.93-.255,11.016-.479S2416.577-460.947,2416.577-460.914Z" transform="translate(-2386.906 524.898)" fill="#f4a595"/>
        <path id="Trazado_59247" data-name="Trazado 59247" d="M2390.532-503.954c0,.025-.316.055-.812.177a6.142,6.142,0,0,0-1.815.793,4.919,4.919,0,0,0-1.419,1.386c-.277.424-.385.729-.41.721a.74.74,0,0,1,.055-.219,2.962,2.962,0,0,1,.277-.554,4.487,4.487,0,0,1,1.424-1.436,5.5,5.5,0,0,1,1.874-.773,5.075,5.075,0,0,1,.61-.081A.62.62,0,0,1,2390.532-503.954Z" transform="translate(-2380.594 557)" fill="#f4a595"/>
        <path id="Trazado_59248" data-name="Trazado 59248" d="M2532.634-558.164a.556.556,0,0,1-.047.152l-.161.421c-.141.363-.358.887-.632,1.533-.554,1.289-1.352,3.049-2.3,4.964s-1.854,3.628-2.522,4.858c-.333.615-.607,1.109-.8,1.452l-.224.391a.71.71,0,0,1-.086.13.653.653,0,0,1,.061-.144l.2-.4c.191-.366.446-.865.762-1.471.643-1.245,1.533-2.96,2.494-4.875s1.763-3.664,2.336-4.941l.673-1.513.189-.41A.777.777,0,0,1,2532.634-558.164Z" transform="translate(-2484.854 597.43)" fill="#263238"/>
      </g>
    </g>
  </g>
</svg>
