<svg xmlns="http://www.w3.org/2000/svg" xmlns:xlink="http://www.w3.org/1999/xlink" width="74.724" height="74.724" viewBox="0 0 74.724 74.724">
  <defs>
    <clipPath id="clip-path">
      <circle id="Elipse_1950" data-name="Elipse 1950" cx="35.362" cy="35.362" r="35.362" fill="#fff"/>
    </clipPath>
  </defs>
  <g id="Grupo_17699" data-name="Grupo 17699" transform="translate(2 2)">
    <g id="Elipse_1949" data-name="Elipse 1949" transform="translate(0)" fill="#fff" stroke="#081551" stroke-width="2">
      <circle cx="35.362" cy="35.362" r="35.362" stroke="none"/>
      <circle cx="35.362" cy="35.362" r="36.362" fill="none"/>
    </g>
    <g id="Grupo_17671" data-name="Grupo 17671" transform="translate(0)" clip-path="url(#clip-path)">
      <g id="Grupo_17670" data-name="Grupo 17670" transform="translate(-4.097 13.323)">
        <g id="Grupo_17666" data-name="Grupo 17666" transform="translate(21.665)">
          <path id="Trazado_59181" data-name="Trazado 59181" d="M2179.872-640.146l.426,6.879a7.333,7.333,0,0,0,7.6,5.416c6.289-.213,6.673-6.9,6.673-6.9l-.19-6.781-15.263-5.043Z" transform="translate(-2168.391 677.924)" fill="#f9cabe"/>
          <path id="Trazado_59182" data-name="Trazado 59182" d="M2195.208-635.1a9.787,9.787,0,0,0,8.4,2.571,11.544,11.544,0,0,0,2.792-.669l-.211-7.276-11.133.864Z" transform="translate(-2180.281 673.381)" fill="#f4a595"/>
          <path id="Trazado_59183" data-name="Trazado 59183" d="M2137.307-757.591a8.466,8.466,0,0,1,.355-1.064,10.611,10.611,0,0,1,3.439-4.465c.994-.737,2.182-1.024,3.04-1.851,1.523-1.47,2.639-2.936,4.622-3.755a16.629,16.629,0,0,1,15.363,1.512,13.325,13.325,0,0,1,5.688,11.242c.036,3.676.493,7.749-1.566,10.947-1.793,2.785-4.845,5.161-8.111,4.983-1.807-.1-3.541-.93-5.35-.924-2.688.009-5.1,1.846-7.768,2.2-5.275.707-8.479-3.89-9.431-8.987C2137.046-750.651,2136.509-754.567,2137.307-757.591Z" transform="translate(-2136.902 769.945)" fill="#081551"/>
          <path id="Trazado_59184" data-name="Trazado 59184" d="M2183.609-727.547l0,.014c.02.471.025.944.01,1.377a4.49,4.49,0,0,1-.026.679,27.914,27.914,0,0,1-.251,4.379,15.717,15.717,0,0,1-1.539,4.544l-.2.378a12.024,12.024,0,0,1-8.729,5.579,11.493,11.493,0,0,1-9.586-2.34.978.978,0,0,0-.121-.11,19,19,0,0,1-5.2-8.279,21.851,21.851,0,0,1-.794-3.663,53,53,0,0,1-.448-6.707c.072-2.41-.056-4.1.736-5.333.833-1.27,3.112-1.667,4.66-1.8a21,21,0,0,1,3.578.282,14.43,14.43,0,0,0,7.021-1.611,14.8,14.8,0,0,1,3.939-1.457,4.309,4.309,0,0,1,5.084,2.782c0,.014.006.042.021.04A48.643,48.643,0,0,1,2183.609-727.547Z" transform="translate(-2151.687 748.871)" fill="#f9cabe"/>
          <path id="Trazado_59185" data-name="Trazado 59185" d="M2208.384-667.17a.011.011,0,0,0,0,.021A.011.011,0,0,0,2208.384-667.17Z" transform="translate(-2190.211 693.289)" fill="#594e86"/>
          <path id="Trazado_59186" data-name="Trazado 59186" d="M2212.655-657.251c-1.059,1.961-4.564,1.864-6.084.511a.215.215,0,0,0-.332.245c.522,1.331,2.339,1.485,3.57,1.494a3.808,3.808,0,0,0,3.611-1.909C2213.673-657.388,2212.91-657.721,2212.655-657.251Z" transform="translate(-2188.607 686.06)" fill="#f4a595"/>
          <path id="Trazado_59187" data-name="Trazado 59187" d="M2191.284-685.552a.89.89,0,0,0-.227.035c-.816.239-.737,1.359-.41,1.954a.81.81,0,0,0,.787.479.9.9,0,0,0,.692-.741C2192.289-684.448,2192.133-685.635,2191.284-685.552Z" transform="translate(-2176.815 707.002)" fill="#1b2138"/>
          <path id="Trazado_59188" data-name="Trazado 59188" d="M2233.716-690.178a.889.889,0,0,1,.229-.016c.849.056,1.014,1.167.824,1.819a.811.811,0,0,1-.664.638.9.9,0,0,1-.836-.573C2232.975-688.882,2232.87-690.075,2233.716-690.178Z" transform="translate(-2208.619 710.463)" fill="#1b2138"/>
          <path id="Trazado_59189" data-name="Trazado 59189" d="M2216.429-684.169c-.291-.688-.274-1.594-.716-2.172a.055.055,0,0,0-.085-.011c-.579.564-.218,1.607.027,2.27.171.466.382.916.594,1.363.071.149.412.615.375.786-.1.47-.964.457-1.29.421-.54-.06-.544.8,0,.851.772.072,2.341-.316,2.156-1.32A12.441,12.441,0,0,0,2216.429-684.169Z" transform="translate(-2195.098 707.607)" fill="#f4a595"/>
          <path id="Trazado_59190" data-name="Trazado 59190" d="M2186.472-701.16a3.892,3.892,0,0,0-2.778.044c-.8.233-2.026.622-2.378,1.436a.362.362,0,0,0,.308.536c.8.036,1.623-.568,2.4-.789a14.575,14.575,0,0,0,2.452-.612A.358.358,0,0,0,2186.472-701.16Z" transform="translate(-2170 718.821)" fill="#081551"/>
          <path id="Trazado_59191" data-name="Trazado 59191" d="M2230.978-706.686c-1.078-1.131-3.64-.642-4.8.135-.367.247-.279.979.25.923a19.365,19.365,0,0,1,2.478-.349,3.638,3.638,0,0,0,2-.155A.356.356,0,0,0,2230.978-706.686Z" transform="translate(-2203.327 723.259)" fill="#081551"/>
          <path id="Trazado_59192" data-name="Trazado 59192" d="M2150.7-681.825s-2.626-3.169-3.863-1.627.692,8.71,5.448,8.012Z" transform="translate(-2144.043 705.749)" fill="#f9cabe"/>
          <path id="Trazado_59193" data-name="Trazado 59193" d="M2155.729-675.02c-.209-.079-.4.244-.224.385a9.9,9.9,0,0,1,1.318,1.16,3.377,3.377,0,0,0-1.2.213c-.278.1-.259.558.074.546a9.066,9.066,0,0,0,1.634-.042c.184.318.345.649.53.979a.314.314,0,0,0,.572-.241A4.634,4.634,0,0,0,2155.729-675.02Z" transform="translate(-2150.723 699.153)" fill="#f4a595"/>
        </g>
        <g id="freepik--Character--inject-2" transform="translate(0 41.313)">
          <path id="Trazado_59194" data-name="Trazado 59194" d="M2158.235-595.322s7.679,5.6,8.9,5.246,7.209-5.246,7.209-5.246l10.012,9.692,2.805,54.308h-36.765l2.031-46.92Z" transform="translate(-2125.299 598.387)" fill="#f4f4f4"/>
          <path id="Trazado_59195" data-name="Trazado 59195" d="M2303.674-587.825l-.542,2.18s-11.446-3.749-13.265-3.587-2.907,10.592-2.907,10.592,5.811,8.144,6.039,8.089,10.935-1.254,15.832-2.223,7.919-2.448,8.715-6.379,0-6.777-.288-7-1.938-1.024-1.938-1.024Z" transform="translate(-2227.159 593.849)" fill="#2d3b8f"/>
          <path id="Trazado_59196" data-name="Trazado 59196" d="M2053.094-548.769a6.489,6.489,0,0,0-1.442,3.172c0,1.419,0,4.995,1.154,7.628s.675,2.9,2.7,3.847a9.426,9.426,0,0,0,4.118.81s5.825-2.206,7.042-5.243,4.308-9.375,4.308-9.375v-32.63s-6.411,2.307-8.031,7.829-5.332,19.843-5.332,19.843Z" transform="translate(-2051.652 587.376)" fill="#2d3b8f"/>
          <path id="Trazado_59197" data-name="Trazado 59197" d="M2133.1-607.384l-3.259,3.7-10.295,3.12-.47,32.263-2.3,28.211h14.86s2.152-14.643,3.271-21.526,2.151-12.559,2.324-16.258,1.635-7.484,0-11.959-4.129-11.27-3.861-13.591A10.483,10.483,0,0,0,2133.1-607.384Z" transform="translate(-2100.223 607.384)" fill="#2d3b8f"/>
          <path id="Trazado_59198" data-name="Trazado 59198" d="M2172.545-571.549a.164.164,0,0,1,0-.064,1.617,1.617,0,0,1,.032-.185c.032-.159.066-.4.1-.706a10.934,10.934,0,0,0-1.185-6.362,18.67,18.67,0,0,0-1.283-1.964,6.224,6.224,0,0,1-.614-1.1,2.778,2.778,0,0,1-.222-1.295l.084.081a2.06,2.06,0,0,1-1.153-.242,2.151,2.151,0,0,1-1.119-1.442l.115.049a7.016,7.016,0,0,0-2.059,2.1l-.153.245.023-.288c.228-2.555.421-4.744.557-6.307.075-.764.133-1.376.173-1.808.023-.2.041-.36.052-.482a1.244,1.244,0,0,1,.026-.164,1.006,1.006,0,0,1,0,.167c0,.121-.017.288-.029.482-.032.436-.075,1.047-.133,1.811-.124,1.563-.289,3.749-.5,6.313l-.13-.043a7.151,7.151,0,0,1,2.1-2.151l.092-.06.02.11a2.02,2.02,0,0,0,1.041,1.35,1.9,1.9,0,0,0,1.07.225h.089v.089a2.662,2.662,0,0,0,.208,1.228,6.138,6.138,0,0,0,.6,1.079l.684.989.317.493.288.5a10.663,10.663,0,0,1,1.154,3.783,10.213,10.213,0,0,1-.034,2.65,6.027,6.027,0,0,1-.133.7l-.043.182A.356.356,0,0,1,2172.545-571.549Z" transform="translate(-2136.261 595.527)" fill="#263238"/>
          <path id="Trazado_59199" data-name="Trazado 59199" d="M2253.43-572.214c0-.34-1.387-19.347-1.387-19.347l-3.942-11.212s-9.9-1.266-10.067-1.266-3.224-3.345-3.224-3.345-3.336,6.344-3.9,9.929a23.37,23.37,0,0,0,0,9.707c.793,3.847,4.355,15.327,5.032,19.286s4.774,25.292,5.056,28.291l14.854-.147C2255.4-544.505,2253.43-571.876,2253.43-572.214Z" transform="translate(-2184.97 607.384)" fill="#2d3b8f"/>
          <path id="Trazado_59200" data-name="Trazado 59200" d="M2312.809-563.992a1.469,1.469,0,0,1,.052.245c.032.176.069.412.121.71s.107.686.164,1.127.127.94.188,1.494c.262,2.218.545,5.289.8,8.686s.438,6.474.559,8.7c.052,1.1.1,2,.127,2.641,0,.288.017.539.023.718a1.348,1.348,0,0,1,0,.251,1.6,1.6,0,0,1-.029-.248q-.023-.268-.052-.718c-.043-.637-.1-1.534-.176-2.636-.147-2.229-.346-5.306-.6-8.7s-.519-6.468-.756-8.686c-.052-.554-.115-1.055-.165-1.5s-.095-.819-.138-1.127-.069-.536-.092-.712A1.922,1.922,0,0,1,2312.809-563.992Z" transform="translate(-2246.439 575.02)" fill="#263238"/>
          <path id="Trazado_59201" data-name="Trazado 59201" d="M2243.272-592.36a.2.2,0,0,1,0,.063,1.628,1.628,0,0,1-.031.182c-.035.17-.078.4-.136.7-.118.608-.288,1.494-.458,2.6s-.384,2.422-.617,3.893-.508,3.1-.888,4.807l-.032.15-.1-.121a6.206,6.206,0,0,0-3.663-2.18l.084-.066a27.523,27.523,0,0,0,.26,7.521c.161.928.332,1.661.455,2.163l.15.577a1.565,1.565,0,0,1,.043.2,1.074,1.074,0,0,1-.069-.2c-.04-.13-.1-.317-.173-.577-.141-.5-.326-1.231-.5-2.16a26.559,26.559,0,0,1-.311-7.553v-.078h.078a6.3,6.3,0,0,1,2.838,1.315,6.106,6.106,0,0,1,.914.917l-.13.029c.381-1.7.655-3.325.9-4.8s.456-2.789.649-3.887.369-1.984.5-2.6c.063-.288.124-.536.161-.692.017-.072.034-.133.046-.179A.222.222,0,0,1,2243.272-592.36Z" transform="translate(-2190.009 596.178)" fill="#263238"/>
          <path id="Trazado_59202" data-name="Trazado 59202" d="M2126.13-523.982a1.079,1.079,0,0,1,.02.213l.035.614c.029.536.058,1.309.086,2.266.058,1.912.1,4.556.069,7.475s-.121,5.566-.213,7.475c-.049.958-.092,1.73-.13,2.264-.02.257-.035.458-.046.614a1.427,1.427,0,0,1-.026.213.946.946,0,0,1,0-.213l.02-.617c.017-.551.046-1.321.081-2.264.066-1.912.141-4.553.17-7.472s0-5.56-.026-7.475c-.014-.943-.029-1.713-.037-2.264v-.617A1.006,1.006,0,0,1,2126.13-523.982Z" transform="translate(-2107.045 545.178)" fill="#263238"/>
          <path id="Trazado_59203" data-name="Trazado 59203" d="M2359.912-570.056a2.477,2.477,0,0,1-.464,0,8.763,8.763,0,0,1-1.258-.161,14.933,14.933,0,0,1-3.913-1.442,21.971,21.971,0,0,1-2-1.154,4.612,4.612,0,0,1-1.375-1.289,2.629,2.629,0,0,1-.441-1.191,2,2,0,0,1,0-.346.362.362,0,0,1,.026-.121c.015,0,0,.167.032.459a2.757,2.757,0,0,0,.47,1.154,4.61,4.61,0,0,0,1.364,1.228c.594.372,1.275.75,1.993,1.122a16.1,16.1,0,0,0,3.867,1.476,12.107,12.107,0,0,0,1.24.208A3.128,3.128,0,0,1,2359.912-570.056Z" transform="translate(-2274.515 583.797)" fill="#263238"/>
          <path id="Trazado_59204" data-name="Trazado 59204" d="M2353.108-567.946a1.542,1.542,0,0,1-.326-.15,2.993,2.993,0,0,1-.363-.2,5.067,5.067,0,0,1-.461-.312,7.663,7.663,0,0,1-1.084-.954,8.731,8.731,0,0,1-1.07-1.416,8.917,8.917,0,0,1-.741-1.609,7.708,7.708,0,0,1-.329-1.407,4.842,4.842,0,0,1-.055-.554,3.063,3.063,0,0,1,0-.418,1.6,1.6,0,0,1,.023-.358c.031,0,0,.51.147,1.312a8.8,8.8,0,0,0,.355,1.378,9.66,9.66,0,0,0,.741,1.58,9.4,9.4,0,0,0,1.041,1.4,8.54,8.54,0,0,0,1.047.966C2352.664-568.2,2353.123-567.975,2353.108-567.946Z" transform="translate(-2273.188 583.475)" fill="#263238"/>
          <g id="Grupo_17667" data-name="Grupo 17667" transform="translate(7.642 12.929)" opacity="0.3">
            <path id="Trazado_59205" data-name="Trazado 59205" d="M2089.379-556.506a5.235,5.235,0,0,0-4.187,2.143,12.23,12.23,0,0,0-2,4.424,40.662,40.662,0,0,0-.418,20.051l4.225,2.552c2.119-4.675-.366-10.249.845-15.235a20.906,20.906,0,0,1,2.039-4.773l1.869-3.538a5.686,5.686,0,0,0,.865-2.6A3.382,3.382,0,0,0,2089.379-556.506Z" transform="translate(-2081.723 556.511)"/>
          </g>
          <path id="Trazado_59206" data-name="Trazado 59206" d="M2073.212-563.009a31.1,31.1,0,0,1,.623-4.037c.467-2.019,2.073-9.439,2.437-10.113a1.946,1.946,0,0,1,2.492-1.194c1.557.415,4.3.883,4.77,1.442a2.256,2.256,0,0,1,.519,1.087s1.09.831,1.154,1.349a2.948,2.948,0,0,1,0,.779s.779-.092.675.914-.312.8-.312.8.934.208.675.986a5.341,5.341,0,0,1-1.609,2.076c-.571.467-1.762.156-1.762.156a18.534,18.534,0,0,1-1.505,3.578,6.387,6.387,0,0,1-1.869,2.177Z" transform="translate(-2067.733 585.808)" fill="#f9cabe"/>
          <path id="Trazado_59207" data-name="Trazado 59207" d="M2110.992-558.962a2.56,2.56,0,0,1-.608-.092l-.651-.144-.381-.089a1.607,1.607,0,0,1-.421-.133.623.623,0,0,1-.289-.366,1.724,1.724,0,0,0-.153-.346,1.487,1.487,0,0,0-.441-.456,3.391,3.391,0,0,0-.545-.248.938.938,0,0,1,.6.159,1.442,1.442,0,0,1,.5.473c.164.21.17.545.392.654a1.709,1.709,0,0,0,.384.121l.381.1.643.173A2.582,2.582,0,0,1,2110.992-558.962Z" transform="translate(-2093.309 572.668)" fill="#f2966e"/>
          <path id="Trazado_59208" data-name="Trazado 59208" d="M2103.073-565.344a2.361,2.361,0,0,0-.738-.5,4.372,4.372,0,0,0-.948-.251,5.637,5.637,0,0,1-1.2-.288,6.513,6.513,0,0,0-1.122-.441,2.909,2.909,0,0,0-.969-.052,5.641,5.641,0,0,0-.865.216.6.6,0,0,1,.214-.127,2.442,2.442,0,0,1,.652-.193,2.739,2.739,0,0,1,1.012.02,6.073,6.073,0,0,1,1.153.438,6.139,6.139,0,0,0,1.154.288,4.085,4.085,0,0,1,.966.288,1.753,1.753,0,0,1,.557.4C2103.042-565.431,2103.082-565.347,2103.073-565.344Z" transform="translate(-2085.65 577.28)" fill="#f2966e"/>
          <path id="Trazado_59209" data-name="Trazado 59209" d="M2095.962-573.225a8.522,8.522,0,0,0-.888-.435,4.509,4.509,0,0,0-1.032-.265c-.2-.026-.41-.029-.635-.04a1.492,1.492,0,0,1-.692-.182c-.213-.121-.386-.288-.577-.389a1.529,1.529,0,0,0-.577-.213,2.385,2.385,0,0,0-1.044.084c-.577.179-.92.366-.931.337a.865.865,0,0,1,.228-.144,4.483,4.483,0,0,1,.675-.288,2.348,2.348,0,0,1,1.1-.115,1.613,1.613,0,0,1,.626.225,6.248,6.248,0,0,0,.577.384,3.632,3.632,0,0,0,1.269.216,3.961,3.961,0,0,1,1.055.288,3.538,3.538,0,0,1,.643.361A.827.827,0,0,1,2095.962-573.225Z" transform="translate(-2079.946 583.154)" fill="#f2966e"/>
          <path id="Trazado_59210" data-name="Trazado 59210" d="M2112.083-546.664a.617.617,0,0,1-.418.049.864.864,0,0,1-.427-.219.9.9,0,0,1-.271-.542h.144a1.727,1.727,0,0,1-.1.378.864.864,0,0,1-.458.508.593.593,0,0,1-.576-.046l.081-.078a.667.667,0,0,1,.1.467c-.017.113-.055.164-.063.162a.847.847,0,0,1,0-.167.687.687,0,0,0-.133-.4l-.193-.254.271.176a.475.475,0,0,0,.456,0,.743.743,0,0,0,.375-.432,1.835,1.835,0,0,0,.089-.346l.087-.551.058.554a.811.811,0,0,0,.216.467.82.82,0,0,0,.36.219A2.061,2.061,0,0,0,2112.083-546.664Z" transform="translate(-2095.002 563.061)" fill="#f2966e"/>
          <path id="Trazado_59211" data-name="Trazado 59211" d="M2068.648-503.516s-2.264-15.117-1.05-19.235l-1.349-1.73-4.926,1.73s-3.936,15.336-4.026,18.488c0,0-.438,3.81,4.551,3.81S2068.648-503.516,2068.648-503.516Z" transform="translate(-2055.855 545.55)" fill="#f9cabe"/>
          <g id="Grupo_17668" data-name="Grupo 17668" transform="translate(47.19 4.158)" opacity="0.3">
            <path id="Trazado_59212" data-name="Trazado 59212" d="M2243.341-591.022c-.839,3.461-1.3,8.432-2.137,11.893a7.531,7.531,0,0,0-3.708-2.206c.043.646-.193,1.154-.15,1.808l.386,5.756a18.481,18.481,0,0,1,.643-5.361l3.509,3.054,1.263-4.1c.1-.317.185-.64.251-.966A35.854,35.854,0,0,0,2243.341-591.022Z" transform="translate(-2237.34 591.022)"/>
          </g>
          <g id="Grupo_17669" data-name="Grupo 17669" transform="translate(52.963 14.629)" opacity="0.3">
            <path id="Trazado_59213" data-name="Trazado 59213" d="M2260.234-549.82c-.049.113-.089.231-.138.343a.459.459,0,0,1-.041.135Z" transform="translate(-2260.055 549.82)"/>
          </g>
        </g>
      </g>
    </g>
  </g>
</svg>
