<svg xmlns="http://www.w3.org/2000/svg" width="258" height="258" viewBox="0 0 258 258">
  <g id="Grupo_25482" data-name="Grupo 25482" transform="translate(-829 -327)">
    <circle id="Elipse_2307" data-name="Elipse 2307" cx="129" cy="129" r="129" transform="translate(829 327)" fill="#f8fbfd"/>
    <g id="Grupo_21254" data-name="Grupo 21254" transform="translate(784.981 287.613)">
      <g id="Grupo_14925" data-name="Grupo 14925">
        <path id="Trazado_52366" data-name="Trazado 52366" d="M137.378,90.385a22.262,22.262,0,0,1,5.132-6.325l-16.362-9.428a6.64,6.64,0,0,1-2.3-1.831,2.272,2.272,0,0,1-.006-2.746,3.21,3.21,0,0,1,2.63-.644,33.632,33.632,0,0,1,9.357,2.015L131.9,65.3c-.546-.851-1.1-1.957-.55-2.806s1.828-.8,2.811-.511a12.856,12.856,0,0,1,8.679,8.91,47.763,47.763,0,0,1,1.418-13.5c.315-1.247.8-2.628,1.976-3.156a3.033,3.033,0,0,1,3.436,1.091,7.841,7.841,0,0,1,1.339,3.6,44.76,44.76,0,0,1-2.073,23.144c3.275.23,6.506,2.016,9.312,3.91a92.508,92.508,0,0,1,26.031,26.676s13.59,22.928-3.518,35.82c-5.468,4.121-11.41,3.591-18.257,3.625s-14.1,1.554-20.7-.251c-5.275-1.442-10.874-3.129-14.381-7.325-4.559-5.453-4.2-13.427-2.872-20.41A103.558,103.558,0,0,1,137.378,90.385Z" fill="#e1e1e1"/>
      </g>
      <g id="Grupo_14926" data-name="Grupo 14926">
        <path id="Trazado_52367" data-name="Trazado 52367" d="M212.881,110.815a21.527,21.527,0,0,0-4.961-6.114l15.818-9.114a6.432,6.432,0,0,0,2.224-1.771,2.2,2.2,0,0,0,.006-2.654,3.1,3.1,0,0,0-2.543-.623,32.539,32.539,0,0,0-9.046,1.948q1.9-2.961,3.8-5.922c.528-.822,1.061-1.892.531-2.713s-1.767-.769-2.717-.493a12.425,12.425,0,0,0-8.39,8.613,46.182,46.182,0,0,0-1.371-13.054c-.305-1.206-.776-2.541-1.91-3.051A2.931,2.931,0,0,0,201,76.922,7.588,7.588,0,0,0,199.7,80.4a43.279,43.279,0,0,0,2.005,22.375c-3.167.222-6.29,1.948-9,3.78a89.421,89.421,0,0,0-25.166,25.788s-13.138,22.166,3.4,34.629c5.286,3.984,11.548,6.641,18.167,6.674s13.111-1.668,19.5-3.412c5.1-1.394,10.513-3.025,13.9-7.081,4.408-5.273,4.06-12.981,2.776-19.732A100.1,100.1,0,0,0,212.881,110.815Z" fill="#081551"/>
      </g>
      <g id="Grupo_14939" data-name="Grupo 14939">
        <g id="Grupo_14938" data-name="Grupo 14938">
          <g id="Grupo_14934" data-name="Grupo 14934">
            <g id="Grupo_14928" data-name="Grupo 14928">
              <g id="Grupo_14927" data-name="Grupo 14927">
                <rect id="Rectángulo_31194" data-name="Rectángulo 31194" width="126.716" height="17.636" rx="4.304" transform="translate(238.475 135.876) rotate(179.337)" fill="#7b55bf"/>
              </g>
            </g>
            <g id="Grupo_14930" data-name="Grupo 14930">
              <g id="Grupo_14929" data-name="Grupo 14929">
                <path id="Trazado_52368" data-name="Trazado 52368" d="M228.26,134.093,214.9,253.161a6.807,6.807,0,0,1-6.546,6.044l-67.9,2.179a6.807,6.807,0,0,1-6.992-6.132L121.5,134.618c-.4-3.988,2.722-7.452,5.886-7.473l93.223-.612C225.529,126.5,228.715,130.041,228.26,134.093Z" fill="#7b55bf"/>
              </g>
            </g>
            <g id="Grupo_14933" data-name="Grupo 14933">
              <g id="Grupo_14932" data-name="Grupo 14932">
                <g id="Grupo_14931" data-name="Grupo 14931">
                  <path id="Trazado_52369" data-name="Trazado 52369" d="M211.911,208.311c-.205-.02,1.2-16.192,3.137-36.117s3.869-36.253,3.879-36.049c.02.38-1.2,16.188-3.137,36.12S212.116,208.33,211.911,208.311Z" fill="#1a2e35"/>
                </g>
              </g>
            </g>
          </g>
          <g id="Grupo_14937" data-name="Grupo 14937">
            <g id="Grupo_14936" data-name="Grupo 14936">
              <g id="Grupo_14935" data-name="Grupo 14935">
                <path id="Trazado_52370" data-name="Trazado 52370" d="M229.906,135.976c0,.205-24.337.639-54.357.969s-54.368.429-54.371.223,24.333-.639,54.363-.969S229.9,135.77,229.906,135.976Z" fill="#1a2e35"/>
              </g>
            </g>
          </g>
        </g>
      </g>
      <g id="Grupo_14860" data-name="Grupo 14860">
        <g id="Grupo_14821" data-name="Grupo 14821">
          <g id="Grupo_14820" data-name="Grupo 14820">
            <g id="Grupo_14818" data-name="Grupo 14818">
              <rect id="Rectángulo_31143" data-name="Rectángulo 31143" width="36.903" height="8.235" transform="translate(157.71 208.547) rotate(-46.468)" fill="#fff"/>
            </g>
            <g id="Grupo_14819" data-name="Grupo 14819">
              <rect id="Rectángulo_31144" data-name="Rectángulo 31144" width="8.235" height="36.903" transform="translate(157.191 188.282) rotate(-46.468)" fill="#fff"/>
            </g>
          </g>
        </g>
      </g>
    </g>
  </g>
</svg>
