<svg xmlns="http://www.w3.org/2000/svg" width="13.135" height="12.039" viewBox="0 0 13.135 12.039">
  <path id="Trazado_63977" data-name="Trazado 63977" d="M220.5,75.49h-7.662a2.739,2.739,0,0,0-2.736,2.736v6.567a2.739,2.739,0,0,0,2.736,2.736H220.5a2.739,2.739,0,0,0,2.736-2.736V78.226A2.739,2.739,0,0,0,220.5,75.49Zm-7.662,1.094H220.5a1.642,1.642,0,0,1,1.521,1.033l-4.191,4.191a1.646,1.646,0,0,1-2.323,0l-4.191-4.191A1.642,1.642,0,0,1,212.838,76.584Zm7.662,9.85h-7.662a1.642,1.642,0,0,1-1.642-1.642V79.047l3.538,3.535a2.74,2.74,0,0,0,3.87,0l3.538-3.535v5.746A1.642,1.642,0,0,1,220.5,86.434Z" transform="translate(-210.102 -75.49)" fill="#081551"/>
</svg>
