<svg xmlns="http://www.w3.org/2000/svg" width="20" height="20" viewBox="0 0 20 20">
  <path id="Trazado_68468" data-name="Trazado 68468" d="M128.216,89.331a2.589,2.589,0,0,1,0,3.655l-.76.876c-6.837,6.545-23.474-10.087-17.029-16.945l.96-.834a2.573,2.573,0,0,1,3.612.033c.025.026,1.572,2.035,1.572,2.035a2.588,2.588,0,0,1-.006,3.575L115.6,82.94a10.665,10.665,0,0,0,5.786,5.8l1.223-.972a2.587,2.587,0,0,1,3.574,0S128.19,89.306,128.216,89.331Zm-1.149,1.214s-2-1.537-2.024-1.562a.918.918,0,0,0-1.292,0c-.023.023-1.707,1.365-1.707,1.365a.837.837,0,0,1-.817.127,12.529,12.529,0,0,1-7.364-7.352.834.834,0,0,1,.121-.835s1.341-1.684,1.363-1.706a.917.917,0,0,0,0-1.293c-.025-.025-1.563-2.024-1.563-2.024a.918.918,0,0,0-1.26.032l-.96.834c-4.71,5.663,9.708,19.28,14.671,14.59l.76-.877a.935.935,0,0,0,.071-1.3Z" transform="translate(-108.971 -75.358)" fill="#081551"/>
</svg>
