<svg id="Grupo_24571" data-name="Grupo 24571" xmlns="http://www.w3.org/2000/svg" width="30" height="30" viewBox="0 0 30 30">
  <path id="Trazado_44996" data-name="Trazado 44996" d="M15,0A15,15,0,1,1,0,15,15,15,0,0,1,15,0Z" transform="translate(0 0)" fill="#081551"/>
  <path id="Trazado_13170" data-name="Trazado 13170" d="M174.329,164.762a1.165,1.165,0,0,0-1.648,0l-3.014,3.014-3.014-3.014a1.165,1.165,0,0,0-1.648,1.648l3.014,3.014-3.014,3.014a1.165,1.165,0,0,0,1.648,1.648l3.014-3.014,3.014,3.014a1.165,1.165,0,0,0,1.648-1.648l-3.014-3.014,3.014-3.014A1.165,1.165,0,0,0,174.329,164.762Z" transform="translate(-154.667 -154.424)" fill="#fff"/>
</svg>
