<svg xmlns="http://www.w3.org/2000/svg" width="14.349" height="14.347" viewBox="0 0 14.349 14.347">
  <path id="Trazado_54125" data-name="Trazado 54125" d="M634.357,672.984h-2.392v-.6a1.794,1.794,0,1,0-3.587,0v.6h-2.391a2.993,2.993,0,0,0-2.99,2.989v5.978a2.993,2.993,0,0,0,2.99,2.989h8.37a2.992,2.992,0,0,0,2.989-2.989v-5.978A2.992,2.992,0,0,0,634.357,672.984Zm-4.783-.6a.6.6,0,1,1,1.2,0v1.2a.6.6,0,1,1-1.2,0Zm6.577,9.565a1.794,1.794,0,0,1-1.793,1.793h-8.37a1.794,1.794,0,0,1-1.794-1.793v-5.978a1.794,1.794,0,0,1,1.794-1.793h2.5a1.783,1.783,0,0,0,3.367,0h2.5a1.793,1.793,0,0,1,1.793,1.793Zm-7.174-5.38h-2.989a.6.6,0,0,0-.6.6v4.782a.6.6,0,0,0,.6.6h2.989a.6.6,0,0,0,.6-.6v-4.782A.6.6,0,0,0,628.976,676.571Zm-.6,4.782h-1.793v-3.586h1.793Zm6.577-1.793a.6.6,0,0,1-.6.6h-2.989a.6.6,0,1,1,0-1.2h2.989A.6.6,0,0,1,634.954,679.56Zm0-2.391a.6.6,0,0,1-.6.6h-2.989a.6.6,0,1,1,0-1.2h2.989A.6.6,0,0,1,634.954,677.169Zm-1.2,4.782a.6.6,0,0,1-.6.6h-1.794a.6.6,0,1,1,0-1.2h1.794A.6.6,0,0,1,633.758,681.951Z" transform="translate(-622.997 -670.593)" fill="#081551"/>
</svg>
