<svg xmlns="http://www.w3.org/2000/svg" width="24" height="24.002" viewBox="0 0 24 24.002">
  <g id="Grupo_20983" data-name="Grupo 20983" transform="translate(-403.352 -71.002)">
    <path id="Trazado_1437" data-name="Trazado 1437" d="M415.351,95a12,12,0,1,1,12-12A12.014,12.014,0,0,1,415.351,95Zm0-22.343A10.343,10.343,0,1,0,425.694,83,10.353,10.353,0,0,0,415.351,72.66Z" transform="translate(0 0)" fill="#FFF"/>
    <path id="Trazado_1438" data-name="Trazado 1438" d="M412.6,84.452a4.444,4.444,0,0,1-4.374-4.5V77.931a4.376,4.376,0,1,1,8.748,0V79.95A4.444,4.444,0,0,1,412.6,84.452Zm0-9.084a2.506,2.506,0,0,0-2.438,2.563V79.95a2.44,2.44,0,1,0,4.875,0V77.931A2.505,2.505,0,0,0,412.6,75.369Z" transform="translate(2.748 0.982)" fill="#FFF"/>
    <path id="Trazado_1439" data-name="Trazado 1439" d="M420.479,86.813a.781.781,0,0,1-.7-.515,6.859,6.859,0,0,0-12.692,0,.732.732,0,0,1-1.052.415,1.01,1.01,0,0,1-.353-1.242,8.325,8.325,0,0,1,15.5,0,1.01,1.01,0,0,1-.352,1.242A.68.68,0,0,1,420.479,86.813Z" transform="translate(1.919 5.01)" fill="#FFF"/>
  </g>
</svg>
