<svg xmlns="http://www.w3.org/2000/svg" width="22.999" height="22.983" viewBox="0 0 22.999 22.983">
  <g id="Grupo_17552" data-name="Grupo 17552" transform="translate(-458.149 -70.133)">
    <path id="Trazado_1430" data-name="Trazado 1430" d="M471.167,89.362h-8.048V79.833a2.259,2.259,0,0,1,2.256-2.256h3.535a2.259,2.259,0,0,1,2.256,2.256Zm-6.544-1.5h5.039V79.833a.753.753,0,0,0-.752-.752h-3.535a.753.753,0,0,0-.752.752Z" transform="translate(2.506 3.754)" fill="#fff"/>
    <path id="Trazado_1431" data-name="Trazado 1431" d="M479.462,93.116H459.837a1.689,1.689,0,0,1-1.688-1.686V78.851a1.68,1.68,0,0,1,.769-1.414l10.3-7.17a.752.752,0,0,1,.857,0l7.95,5.531v0l2.372,1.652a1.664,1.664,0,0,1,.746,1.4V91.43A1.688,1.688,0,0,1,479.462,93.116ZM469.649,71.8l-9.894,6.885a.2.2,0,0,0-.1.164V91.43a.184.184,0,0,0,.184.182h19.625a.183.183,0,0,0,.182-.182V78.851a.18.18,0,0,0-.08-.15Z" transform="translate(0 0)" fill="#fff"/>
  </g>
</svg>
